<svg width="127" height="127" viewBox="0 0 127 127" fill="none" xmlns="http://www.w3.org/2000/svg">
<rect x="30" y="24" width="71" height="63" fill="black"/>
<path fill-rule="evenodd" clip-rule="evenodd" d="M63.5 0C53.0244 0.0328495 42.906 3.81107 34.9726 10.6521C28.8925 15.8909 24.4872 22.7171 23.3521 29.5672C10.0489 32.5041 0 44.0928 0 58.0866C0 74.3426 13.5572 87.3125 30.0117 87.3125H59.5312V45.2993L42.4974 62.3411C41.7522 63.0864 40.7414 63.505 39.6875 63.505C38.6336 63.505 37.6228 63.0864 36.8776 62.3411C36.1324 61.5959 35.7137 60.5852 35.7137 59.5312C35.7137 58.4773 36.1324 57.4666 36.8776 56.7214L60.6901 32.9089C61.0588 32.5393 61.4967 32.246 61.9789 32.046C62.4611 31.8459 62.978 31.7429 63.5 31.7429C64.022 31.7429 64.5389 31.8459 65.0211 32.046C65.5033 32.246 65.9412 32.5393 66.3099 32.9089L90.1224 56.7214C90.8676 57.4666 91.2863 58.4773 91.2863 59.5312C91.2863 60.5852 90.8676 61.5959 90.1224 62.3411C89.3772 63.0864 88.3664 63.505 87.3125 63.505C86.2586 63.505 85.2478 63.0864 84.5026 62.3411L67.4688 45.2993V87.3125H100.711C115.11 87.3125 127 75.9619 127 61.6982C127 48.7124 117.142 38.1317 104.505 36.3458C102.576 15.8671 84.8519 0 63.5 0ZM59.5312 115.094V87.3125H67.4688V115.094C67.4688 116.146 67.0506 117.156 66.3063 117.9C65.562 118.644 64.5526 119.062 63.5 119.062C62.4474 119.062 61.438 118.644 60.6937 117.9C59.9494 117.156 59.5312 116.146 59.5312 115.094Z" fill="#00FF24"/>
</svg>
